<svg width="24" height="24" viewBox="0 0 24 24" fill="none" xmlns="http://www.w3.org/2000/svg">
<path d="M11.9997 16.175L15.8997 12.3C16.083 12.1167 16.3123 12.0207 16.5877 12.012C16.863 12.0034 17.1003 12.0994 17.2997 12.3C17.483 12.4834 17.5747 12.7167 17.5747 13C17.5747 13.2834 17.483 13.5167 17.2997 13.7L12.6997 18.3C12.5997 18.4 12.4913 18.471 12.3747 18.513C12.258 18.555 12.133 18.5757 11.9997 18.575C11.8663 18.5744 11.7413 18.5537 11.6247 18.513C11.508 18.4724 11.3997 18.4014 11.2997 18.3L6.69967 13.7C6.51634 13.5167 6.42034 13.2877 6.41167 13.013C6.403 12.7384 6.499 12.5007 6.69967 12.3C6.883 12.1167 7.11634 12.025 7.39967 12.025C7.683 12.025 7.91634 12.1167 8.09967 12.3L11.9997 16.175ZM11.9997 10.175L15.8997 6.30004C16.083 6.1167 16.3123 6.02104 16.5877 6.01304C16.863 6.00504 17.1003 6.1007 17.2997 6.30004C17.483 6.48337 17.5747 6.7167 17.5747 7.00004C17.5747 7.28337 17.483 7.5167 17.2997 7.70004L12.6997 12.3C12.5997 12.4 12.4913 12.471 12.3747 12.513C12.258 12.555 12.133 12.5757 11.9997 12.575C11.8663 12.5744 11.7413 12.5537 11.6247 12.513C11.508 12.4724 11.3997 12.4014 11.2997 12.3L6.69967 7.70004C6.51634 7.5167 6.42034 7.2877 6.41167 7.01304C6.403 6.73837 6.499 6.5007 6.69967 6.30004C6.883 6.1167 7.11634 6.02504 7.39967 6.02504C7.683 6.02504 7.91634 6.1167 8.09967 6.30004L11.9997 10.175Z" fill="black"/>
</svg>
